<?xml version="1.0" standalone="no"?><!DOCTYPE svg PUBLIC "-//W3C//DTD SVG 1.1//EN" "http://www.w3.org/Graphics/SVG/1.1/DTD/svg11.dtd"><svg t="1721615793105" class="icon" viewBox="0 0 1024 1024" version="1.1" xmlns="http://www.w3.org/2000/svg" p-id="4221" xmlns:xlink="http://www.w3.org/1999/xlink" width="200" height="200"><path d="M775.620728 523.289967c0-147.898567-120.238148-226.363837-268.136715-226.363837S239.347299 374.826902 239.347299 523.289967c0 28.789416 4.515987 57.578831 14.112458 84.674752 0 0 85.803749 271.523705 254.024256 183.461962 168.220507 88.061742 254.024256-183.461963 254.024256-183.461962 9.031974-27.095921 14.112459-55.885336 14.112459-84.674752" fill="#BF2138" p-id="4222"></path><path d="M775.620728 523.289967c0-93.142227-47.417861-158.624035-119.67365-194.187431 43.466373 37.821389 69.997795 91.448732 69.997795 161.446527 0 28.789416-4.515987 57.578831-14.112458 84.674752 0 0-67.175303 211.122381-198.703418 200.396913-5.644983 7.902977-11.854465 15.241455-19.192944 22.015435 3.951488-1.693495 8.467475-3.38699 12.418964-5.644983 168.220507 88.061742 254.024256-183.461963 254.024255-183.461963 10.16097-27.660419 15.241455-56.449835 15.241456-85.23925" fill="#930527" p-id="4223"></path><path d="M507.484013 461.195149c-66.046307 0-93.706725-34.434399-94.835722-36.127894-4.515987-5.080485-5.644983-12.418964-2.822492-18.628446 2.257993-6.209482 7.902977-10.725469 14.676957-11.854465 6.77398-1.128997 12.983462 1.693495 17.499449 7.338478 0.564498 0.564498 19.192944 22.015436 66.046307 22.015436 46.853363 0 65.481808-21.450937 66.046306-22.015436 6.77398-7.902977 18.063947-9.031974 25.966924-2.257993 7.902977 6.209482 9.031974 17.499449 2.822492 25.402426-1.693495 1.693495-29.353914 36.127894-95.400221 36.127894" fill="" p-id="4224"></path><path d="M507.484013 772.798236c2.822492 0 5.644983 0.564498 8.467475 2.257993 33.869901 17.499449 64.91731 20.32194 95.400221 7.902977 80.723264-33.305402 126.44763-161.446527 132.092613-178.381477 0-0.564498 0.564498-1.693495 0.564498-2.257994 8.467475-25.402426 12.983462-51.933848 12.983462-79.029768 0-153.54355-134.350606-207.735391-249.508269-207.735391s-249.508269 54.191841-249.508269 207.735391c0 27.095921 4.515987 53.627343 12.983462 79.029768 0 0.564498 0.564498 1.128997 0.564499 2.257994 5.644983 16.93495 51.933848 145.076075 132.092613 178.381477 30.482911 12.418964 61.53032 10.16097 95.40022-7.902977 2.822492-1.128997 5.644983-2.257993 8.467475-2.257993m65.481808 54.75634c-21.450937 0-43.466373-5.080485-65.481808-15.241456-40.643881 18.628445-80.158765 20.32194-117.980154 5.080485-102.174201-42.337376-151.850055-197.009923-154.108049-203.219404 0-0.564498-0.564498-1.128997-0.564498-1.693495-9.596472-28.789416-14.112459-58.14333-14.112459-88.626241 0-146.205072 115.157663-244.427784 286.200662-244.427784s286.200662 98.222712 286.200661 244.427784c0 29.918412-5.080485 59.836825-14.112458 88.626241 0 0.564498-0.564498 1.128997-0.564499 1.693495-2.257993 6.77398-51.933848 161.446527-154.108048 203.219404-15.805954 6.77398-33.305402 10.16097-51.36935 10.160971" fill="" p-id="4225"></path><path d="M507.484013 461.195149c-7.902977 0-15.241455-5.080485-17.499449-12.983462-1.693495-5.080485-38.385888-129.270121 60.965822-223.541345 7.338479-6.77398 19.192944-6.77398 25.966924 0.564498 6.77398 7.338479 6.77398 19.192944-0.564499 25.966924-82.416759 77.900772-51.933848 181.203969-50.804851 185.719956 2.822492 9.596472-2.257993 19.757442-12.418963 23.144432-2.257993 0.564498-3.951488 1.128997-5.644984 1.128997" fill="" p-id="4226"></path><path d="M249.508269 203.219405c203.219405-64.352811 193.622933 101.045204 193.622933 101.045204S313.86108 406.438809 249.508269 203.219405" fill="#3BB777" p-id="4227"></path><path d="M249.508269 203.219405l193.622933 101.045204S313.86108 406.438809 249.508269 203.219405" fill="#1C7C45" p-id="4228"></path><path d="M273.2172 215.638368c19.192944 51.933848 44.595369 82.981257 75.642778 92.577729 31.611907 9.596472 62.659316-5.644983 76.207277-14.112459-1.128997-15.805954-6.209482-50.240353-32.176406-69.997795s-66.046307-22.579934-119.673649-8.467475m96.529217 132.657112c-10.725469 0-21.450937-1.693495-31.611908-4.515987-46.853363-14.676957-82.416759-59.836825-106.125689-134.915105-1.693495-4.515987-1.128997-9.596472 1.128997-14.112459s6.209482-7.902977 10.725469-9.031973c75.07828-23.708931 132.657111-20.32194 171.042998 9.596472 50.240353 38.950386 46.853363 107.254686 46.288865 110.077177-0.564498 5.080485-2.822492 10.16097-6.77398 13.547961-1.693495 1.128997-37.821389 29.353914-84.674752 29.353914" fill="#020202" p-id="4229"></path><path d="M326.844542 672.31753c-46.853363-46.853363-37.821389-104.432194-37.821389-107.254685 1.128997-7.338479 8.467475-12.983462 15.805954-11.289967 7.338479 1.128997 12.983462 8.467475 11.289967 15.805953-0.564498 2.257993-6.77398 49.675854 33.305402 86.368247 6.209482 4.515987 6.209482 14.112459 1.128997 19.757442-2.257993 2.822492-5.644983 4.515987-9.596472 4.515987-3.38699 0-7.338479-1.128997-10.16097-3.38699-1.128997-1.693495-2.257993-3.38699-3.951489-4.515987m-15.805953-193.622932c5.644983 4.515987 7.902977 12.418964 5.644983 19.192943-2.257993 6.77398-8.467475 11.854465-15.805953 12.418964-7.338479 0.564498-14.112459-3.38699-17.499449-9.596472-3.38699-6.77398-2.257993-14.676957 2.257993-19.757442 6.209482-7.338479 17.499449-8.467475 25.402426-2.257993" fill="#FEFEFE" p-id="4230"></path></svg>