<?xml version="1.0" standalone="no"?><!DOCTYPE svg PUBLIC "-//W3C//DTD SVG 1.1//EN" "http://www.w3.org/Graphics/SVG/1.1/DTD/svg11.dtd"><svg t="1721615850486" class="icon" viewBox="0 0 1024 1024" version="1.1" xmlns="http://www.w3.org/2000/svg" p-id="5713" xmlns:xlink="http://www.w3.org/1999/xlink" width="200" height="200"><path d="M915.8656 476.7232c-98.048 44.7488-255.6928 80.2304-360.4992 74.3936-182.7328-11.3664-284.3136-141.8752-332.7488-230.9632-7.0144 49.9712-2.9696 117.0944 41.1648 185.8048 40.1408 51.8656 107.008 177.6128 429.4144 170.24 50.0224-1.4848 110.4896 4.096 93.0816 48.4352 92.0576-51.9168 141.3632-135.168 172.1856-205.7728 11.6736-26.88-15.872-54.3232-42.5984-42.1376z" fill="#FDF29B" p-id="5714"></path><path d="M944.2304 477.6448c-43.7248 113.8176-126.6176 150.6304-161.4336 156.416C253.0304 668.8768 230.912 354.1504 230.912 354.1504l-9.7792-21.0432c-4.5568 48.2816 2.2016 109.8752 42.5984 172.8512 40.1408 51.8656 107.008 177.6128 429.4144 170.24 50.0224-1.4848 110.4896 4.096 93.0816 48.4352 92.0576-51.9168 141.3632-135.168 172.1856-205.7728 7.3216-16.7936-0.6656-33.792-14.1824-41.216z" fill="#F7DC86" p-id="5715"></path><path d="M786.2272 740.0448c-3.6352 0-7.2192-1.28-10.0864-3.7888a15.27808 15.27808 0 0 1-4.1984-17.2032c3.6352-9.216 1.3312-12.4928 0.5632-13.568-2.6112-3.7376-16.0256-15.8208-78.8992-13.9264-307.3024 6.8608-389.0176-104.3456-433.0496-164.1472-3.1744-4.352-6.144-8.3968-9.0112-12.032-0.256-0.3584-0.512-0.7168-0.768-1.1264-48.128-74.9568-50.176-148.0704-43.4176-196.2496 0.9216-6.5536 5.9392-11.776 12.4928-12.9536 6.5024-1.1776 13.056 1.9456 16.2304 7.7824 52.1728 95.8464 150.0672 212.3776 320.256 222.976 96.512 5.3248 251.6992-26.7264 353.1264-73.0624 17.92-8.192 38.656-4.5568 52.736 9.3184a47.232 47.232 0 0 1 10.24 52.992c-12.3392 28.2624-23.9616 54.9888-47.7696 88.9856a15.36 15.36 0 0 1-21.4016 3.7888 15.36 15.36 0 0 1-3.7888-21.4016c20.5824-29.3888 30.6688-51.2 44.8-83.6608 4.3008-9.8816-1.6896-16.896-3.6352-18.7904-1.8944-1.8944-8.8576-7.6288-18.432-3.2768-107.1104 48.896-265.216 81.4592-367.7184 75.776-163.328-10.1376-264.0384-112.9984-319.1296-195.3792 1.9968 44.3904 15.6672 86.5792 40.9088 126.0544 2.8672 3.6864 5.8368 7.7824 9.0112 12.0832 40.704 55.296 116.4288 158.3104 407.4496 151.6544 57.344-1.7408 90.6752 6.8608 104.8064 26.9312 1.792 2.5088 3.4816 5.5808 4.7616 9.216 21.248-13.7216 36.352-26.8288 53.0944-45.4656a15.37536 15.37536 0 0 1 22.8352 20.5824c-24.576 27.2896-46.6944 44.544-84.5824 65.8944-2.2528 1.3312-4.8128 1.9968-7.424 1.9968z" fill="#000F04" p-id="5716"></path><path d="M814.9504 338.2272c1.4336-43.1104-50.2272-65.9968-80.896-35.6352-78.2848 77.4656-192.4608 134.0928-292.4032 132.1984-111.104-3.4816-168.96-76.7488-195.7376-127.0784l-13.056-2.5088c2.4064 14.336 5.4272 30.9248 9.1136 48.0256 54.1184 85.1968 152.1664 187.9552 313.344 197.9904 59.8016 3.328 136.8064-6.8096 210.0736-24.4224 36.2496-69.4272 47.6672-132.0448 49.5616-188.5696z" fill="#FDF29B" p-id="5717"></path><path d="M775.168 289.4336c-2.7136 32.4096-8.7552 76.7488-22.016 115.2a141.52704 141.52704 0 0 1-92.3136 89.088c-76.544 23.552-230.3488 41.216-393.5744-104.2944 57.4464 75.7248 149.3504 153.0368 288.1024 161.6896 59.8016 3.328 136.8064-6.8096 210.0736-24.4224 36.1472-69.376 47.5648-131.9424 49.4592-188.5184 0.9216-26.2656-17.92-44.9536-39.7312-48.7424z" fill="#F7DC86" p-id="5718"></path><path d="M579.1744 567.1424c-8.5504 0-16.7424-0.2048-24.6272-0.6656-167.9872-10.4448-269.7216-117.2992-325.4784-205.056-0.9728-1.536-1.6896-3.2256-2.048-5.0176-3.2256-15.104-6.3488-31.488-9.2672-48.6912-0.8192-4.9664 0.8192-10.0352 4.4032-13.5168 3.584-3.5328 8.704-5.0176 13.6704-4.096l13.0048 2.5088c4.5568 0.8704 8.448 3.7888 10.6496 7.8848 27.9552 52.5312 82.3296 115.7632 182.6816 118.9376 8.4992 0.256 15.1552 7.3728 14.848 15.8208-0.256 8.4992-7.5776 15.0528-15.8208 14.848-75.6736-2.4064-128.2048-35.5328-163.2768-71.936 55.0912 73.3696 143.9744 149.2992 278.4256 157.6448 52.7872 2.9184 124.928-5.2224 198.7072-22.4256 28.2112-56.1152 42.4448-112.1792 44.544-175.7184 0.5632-16.2816-9.6256-26.5728-19.3536-30.8224-12.4416-5.4272-25.6512-2.9696-35.3792 6.656-55.9104 55.296-152.832 108.8-235.776 130.0992-8.192 2.0992-16.5888-2.816-18.688-11.0592-2.0992-8.192 2.816-16.5888 11.0592-18.688 78.1824-20.0704 169.4208-70.3488 221.8496-122.1632 18.688-18.4832 45.2608-23.4496 69.3248-12.9536 24.1664 10.5472 38.6048 33.5872 37.7344 60.0064-2.3552 70.656-18.6368 132.6592-51.2 195.072-2.048 3.9424-5.7344 6.8096-10.0352 7.8336-69.3248 16.64-135.6288 25.4976-189.952 25.4976z" fill="#000F04" p-id="5719"></path><path d="M693.1456 676.2496c-322.4064 7.3728-389.2736-118.3744-429.4144-170.24-49.2032-76.5952-48.5376-151.1936-38.2976-202.24l27.4944 5.3248c31.8464 6.144 62.6176-14.6432 68.7616-46.4896l0.8704-4.6592c6.144-31.8464-14.6432-62.6176-46.4896-68.7616l-120.576-23.3472c-31.8464-6.144-62.6176 14.6432-68.7616 46.4896l-0.9216 4.6592c-6.144 31.8464 14.6432 62.6176 46.4896 68.7616l21.5552 4.1472c-10.3936 37.6832-29.696 68.3008-49.3056 107.4176-66.8672 148.48-56.1664 271.5648 93.6448 395.9808 259.5328 196.6592 501.6576 26.7776 540.4672-9.3696 107.008-99.0208 21.4016-109.7216-45.5168-107.6736z" fill="#FDF29B" p-id="5720"></path><path d="M738.6624 783.9232c50.9952-47.1552 58.2144-74.24 44.5952-89.4976a176.9984 176.9984 0 0 0-10.3936-7.7824c-43.52 54.8352-146.5856 93.1328-235.5712 111.36-88.1664 18.0224-180.1728 2.9696-256.5632-44.6464-74.1888-46.2336-143.0528-115.712-147.4048-192.512-7.0144-124.416 63.232-257.8432 92.1088-257.1264 47.9744 1.1776 74.8032-4.7616 87.8592-20.4288 3.9936-6.144 6.912-13.1072 8.3456-20.736l0.9216-4.608c0.7168-3.7888 1.0752-7.5264 1.0752-11.2128-139.4688 35.584-200.3456-18.176-225.7408-59.0848-5.4272 7.0144-9.3696 15.36-11.1616 24.6272l-0.9216 4.6592c-6.144 31.8464 14.6432 62.6176 46.4896 68.7616l21.5552 4.1472c-10.3936 37.6832-29.696 68.3008-49.3056 107.4176-66.8672 148.48-56.1664 271.5648 93.6448 395.9808 259.5328 196.7104 501.6576 26.7776 540.4672-9.3184z" fill="#F7DC86" p-id="5721"></path><path d="M459.5712 901.7856c-94.464 0-186.5728-32.512-270.6944-96.256-0.2048-0.1536-0.3584-0.256-0.512-0.4096-75.5712-62.7712-119.1936-127.4368-133.3248-197.7344-12.8512-64-1.2288-134.7584 35.4816-216.3712 0.1024-0.2048 0.1536-0.3584 0.256-0.5632 5.0176-10.0352 9.984-19.4048 14.7456-28.5184 11.1616-21.1456 21.1456-40.0384 28.416-60.2624l-4.608-0.8704c-40.0896-7.7824-66.4064-46.6944-58.624-86.784l0.9728-4.7104c3.7376-19.4048 14.848-36.1984 31.232-47.2576 16.384-11.0592 36.096-15.104 55.552-11.3152L279.04 174.08c19.4048 3.7376 36.1984 14.848 47.3088 31.232 11.0592 16.384 15.104 36.096 11.3152 55.552l-0.9216 4.6592c-3.7376 19.4048-14.848 36.1984-31.232 47.3088-16.384 11.0592-36.1472 15.104-55.552 11.3152l-12.0832-2.3552c-6.5536 46.1824-3.3792 109.9776 38.4 175.36 2.8672 3.6864 5.8368 7.7824 9.0112 12.0832 40.704 55.296 116.4288 158.2592 407.4496 151.6544 63.8976-1.9456 98.6112 9.0624 109.0048 34.5088 10.3424 25.2928-6.4 56.9856-52.736 99.84-25.1904 23.4496-98.2528 73.6256-194.4576 95.6928-31.6928 7.2192-63.488 10.8544-94.976 10.8544z m-251.8528-120.5248c106.0352 80.2816 220.4672 107.0592 340.0192 79.6672 93.184-21.3504 161.8432-70.912 180.4288-88.2176 49.7664-46.0288 46.3872-62.8224 45.2096-65.6896-1.2288-2.9184-10.7008-17.5104-79.7696-15.4112h-0.1024c-306.9952 7.0656-388.9152-104.3456-432.896-164.1472-3.1744-4.352-6.144-8.3968-9.0112-12.032-0.256-0.3584-0.512-0.7168-0.768-1.1264-52.4288-81.6128-50.944-161.1776-40.448-213.5552a15.35488 15.35488 0 0 1 17.9712-12.0832l27.4944 5.3248c11.3664 2.2016 22.8864-0.1536 32.512-6.656a43.1104 43.1104 0 0 0 18.2784-27.648l0.9216-4.6592c2.2016-11.3664-0.1536-22.8864-6.656-32.512a43.1104 43.1104 0 0 0-27.648-18.2784L152.576 180.8896c-11.3664-2.2016-22.8864 0.1536-32.512 6.656a43.2384 43.2384 0 0 0-18.2784 27.648l-0.9216 4.6592c-4.5568 23.4496 10.8544 46.2336 34.304 50.7904l21.5552 4.1472c4.1984 0.8192 7.8848 3.328 10.1376 6.9632 2.2528 3.6352 2.9184 8.0384 1.7408 12.1856-8.192 29.7984-21.6576 55.296-35.8912 82.3296-4.6592 8.8576-9.5232 18.0224-14.336 27.648-69.4784 154.5728-42.8032 267.4688 89.344 377.344z m485.4272-105.0112z" fill="#000F04" p-id="5722"></path><path d="M590.5408 779.2128c-0.3072 0-0.6144 0-0.9728-0.0512-210.432-12.8-317.952-102.2976-371.0976-175.1552-5.0176-6.8608-3.4816-16.4864 3.3792-21.4528 6.8608-5.0176 16.4352-3.4816 21.4528 3.3792 49.2544 67.4816 149.6064 150.4768 348.16 162.6112a15.36 15.36 0 0 1 14.3872 16.2816 15.3856 15.3856 0 0 1-15.3088 14.3872zM202.0352 562.8928c-5.632 0-11.1104-3.1232-13.7728-8.5504-13.824-27.904-18.2784-47.1552-18.432-47.9744a15.36 15.36 0 0 1 29.952-6.8096c0.0512 0.1536 3.9936 16.8448 16.0256 41.1648a15.33952 15.33952 0 0 1-13.7728 22.1696z" fill="#000F04" p-id="5723"></path></svg>