<?xml version="1.0" standalone="no"?><!DOCTYPE svg PUBLIC "-//W3C//DTD SVG 1.1//EN" "http://www.w3.org/Graphics/SVG/1.1/DTD/svg11.dtd"><svg t="1721616022397" class="icon" viewBox="0 0 1024 1024" version="1.1" xmlns="http://www.w3.org/2000/svg" p-id="16562" xmlns:xlink="http://www.w3.org/1999/xlink" width="200" height="200"><path d="M388.39596 565.268687s-2.068687-1.034343-4.137374-3.10303c-21.721212-15.515152-112.226263-71.886869-169.632323 32.064646-65.680808 117.915152 80.161616 207.385859 132.395959 208.420202 173.769697 3.10303 208.420202-211.523232 68.783839-226.00404l-27.410101-11.377778" fill="#DE0025" p-id="16563"></path><path d="M621.123232 594.230303s-2.068687 0-5.171717 1.034343c-24.824242 7.240404-124.121212 44.993939-80.161616 156.185859 50.165657 125.155556 208.420202 63.612121 243.587879 22.755556 110.157576-137.567677-34.133333-297.890909-131.361616-194.973738l-26.89293 14.99798" fill="#DE0025" p-id="16564"></path><path d="M601.987879 512c7.240404-37.753535 2.068687-181.010101-7.240404-204.282828-7.757576-20.169697-25.341414-42.925253-31.030303-49.648485-6.206061-7.240404-9.309091-8.791919-14.480808-7.757576-5.688889 1.551515-10.860606 5.171717-10.860606 11.89495 0 3.620202 1.551515 6.723232 3.620202 8.791919 6.206061 6.206061 14.99798 20.686869 14.997979 20.686868-2.068687 86.367677-126.189899 164.460606-164.977777 191.870708-38.270707 27.927273-26.375758 112.226263-26.375758 112.226262 6.206061 14.480808 28.444444 5.171717 28.444444 5.171717-9.309091-36.20202 2.068687-91.539394 32.064647-108.088889 29.99596-16.549495 126.189899-110.157576 136.533333-132.395959 4.654545-10.343434 7.757576-25.858586 9.309091-39.822222 19.652525 70.852525 4.137374 175.321212 1.551515 215.660606-4.654545 52.234343 60.509091 93.608081 60.509091 93.608081 14.480808 3.10303 21.20404-22.755556 21.721212-22.755556-29.99596-12.929293-61.026263-57.406061-53.785858-95.159596z" fill="#338200" p-id="16565"></path><path d="M270.480808 615.951515m-23.789899 0a23.789899 23.789899 0 1 0 47.579798 0 23.789899 23.789899 0 1 0-47.579798 0Z" fill="#FFFFFF" p-id="16566"></path><path d="M265.309091 676.460606m-12.929293 0a12.929293 12.929293 0 1 0 25.858586 0 12.929293 12.929293 0 1 0-25.858586 0Z" fill="#FFFFFF" p-id="16567"></path><path d="M590.092929 717.317172m-26.375757 0a26.375758 26.375758 0 1 0 52.751515 0 26.375758 26.375758 0 1 0-52.751515 0Z" fill="#FFFFFF" p-id="16568"></path><path d="M630.432323 758.690909m-10.343434 0a10.343434 10.343434 0 1 0 20.686869 0 10.343434 10.343434 0 1 0-20.686869 0Z" fill="#FFFFFF" p-id="16569"></path></svg>