<?xml version="1.0" standalone="no"?><!DOCTYPE svg PUBLIC "-//W3C//DTD SVG 1.1//EN" "http://www.w3.org/Graphics/SVG/1.1/DTD/svg11.dtd"><svg t="1721616051575" class="icon" viewBox="0 0 1024 1024" version="1.1" xmlns="http://www.w3.org/2000/svg" p-id="17976" xmlns:xlink="http://www.w3.org/1999/xlink" width="200" height="200"><path d="M957.9 564.4C956.6 679.8 753 756.2 588.6 756.8c-197.4 0.5-396.9-132.1-435.9-192.3-75.6-116.7-92.3-158-79.5-209.8 12.8-51.8 53.8 2.1 159-26.2 105.1-28.2 302.6-64.1 371.8-59 69.3 5.2 356.4 48.8 353.9 294.9z" fill="#F6CE2E" p-id="17977"></path><path d="M53.8 272.4H71v270H53.8z" fill="#8CC63F" opacity=".64" p-id="17978"></path><path d="M70.9 272.4H75v270h-4.1z" fill="#8CC63F" opacity=".64" p-id="17979"></path><path d="M75 272.4h4.1v270H75z" fill="#8DC63F" opacity=".64" p-id="17980"></path><path d="M78.9 272.4H83v270h-4.1z" fill="#8EC73E" opacity=".64" p-id="17981"></path><path d="M83 272.4h4.1v270H83z" fill="#8FC73E" opacity=".64" p-id="17982"></path><path d="M87.1 272.4h4.1v270h-4.1z" fill="#90C73D" opacity=".64" p-id="17983"></path><path d="M90.9 272.4H95v270h-4.1z" fill="#91C83D" opacity=".64" p-id="17984"></path><path d="M95 272.4h4.1v270H95z" fill="#92C83D" opacity=".64" p-id="17985"></path><path d="M98.9 272.4h4.1v270h-4.1z" fill="#93C83C" opacity=".64" p-id="17986"></path><path d="M103 272.4h4.1v270H103z" fill="#94C93C" opacity=".64" p-id="17987"></path><path d="M107.1 272.4h4.1v270h-4.1z" fill="#95C93B" opacity=".64" p-id="17988"></path><path d="M110.9 272.4h4.1v270h-4.1z" fill="#96C93B" opacity=".64" p-id="17989"></path><path d="M115 272.4h4.1v270H115z" fill="#97CA3B" opacity=".64" p-id="17990"></path><path d="M119.1 272.4h4.1v270h-4.1z" fill="#98CA3A" opacity=".64" p-id="17991"></path><path d="M123 272.4h4.1v270H123z" fill="#99CA3A" opacity=".64" p-id="17992"></path><path d="M127.1 272.4h4.1v270h-4.1z" fill="#9ACB39" opacity=".64" p-id="17993"></path><path d="M131.2 272.4h4.1v270h-4.1z" fill="#9BCB39" opacity=".64" p-id="17994"></path><path d="M135 272.4h4.1v270H135z" fill="#9CCB39" opacity=".64" p-id="17995"></path><path d="M139.1 272.4h4.1v270h-4.1z" fill="#9DCC38" opacity=".64" p-id="17996"></path><path d="M143 272.4h4.1v270H143z" fill="#9ECC38" opacity=".64" p-id="17997"></path><path d="M147.1 272.4h4.1v270h-4.1z" fill="#9FCD38" opacity=".64" p-id="17998"></path><path d="M151.2 272.4h4.1v270h-4.1z" fill="#A0CD37" opacity=".64" p-id="17999"></path><path d="M155 272.4h4.1v270H155z" fill="#A1CD37" opacity=".64" p-id="18000"></path><path d="M159.1 272.4h4.1v270h-4.1z" fill="#A2CE36" opacity=".64" p-id="18001"></path><path d="M163.2 272.4h4.1v270h-4.1z" fill="#A3CE36" opacity=".64" p-id="18002"></path><path d="M167.1 272.4h4.1v270h-4.1z" fill="#A4CE36" opacity=".64" p-id="18003"></path><path d="M171.2 272.4h4.1v270h-4.1z" fill="#A5CF35" opacity=".64" p-id="18004"></path><path d="M175.3 272.4h4.1v270h-4.1z" fill="#A6CF35" opacity=".64" p-id="18005"></path><path d="M179.1 272.4h4.1v270h-4.1z" fill="#A7CF34" opacity=".64" p-id="18006"></path><path d="M183.2 272.4h4.1v270h-4.1z" fill="#A8D034" opacity=".64" p-id="18007"></path><path d="M187.1 272.4h4.1v270h-4.1z" fill="#A9D034" opacity=".64" p-id="18008"></path><path d="M191.2 272.4h4.1v270h-4.1z" fill="#AAD033" opacity=".64" p-id="18009"></path><path d="M195.3 272.4h4.1v270h-4.1z" fill="#ABD133" opacity=".64" p-id="18010"></path><path d="M199.1 272.4h4.1v270h-4.1z" fill="#ACD132" opacity=".64" p-id="18011"></path><path d="M203.2 272.4h4.1v270h-4.1z" fill="#ADD132" opacity=".64" p-id="18012"></path><path d="M207.4 272.4h4.1v270h-4.1z" fill="#AED232" opacity=".64" p-id="18013"></path><path d="M211.2 272.4h4.1v270h-4.1z" fill="#AFD231" opacity=".64" p-id="18014"></path><path d="M215.3 272.4h4.1v270h-4.1z" fill="#B0D231" opacity=".64" p-id="18015"></path><path d="M219.1 272.4h4.1v270h-4.1z" fill="#B1D330" opacity=".64" p-id="18016"></path><path d="M223.2 272.4h4.1v270h-4.1z" fill="#B3D330" opacity=".64" p-id="18017"></path><path d="M227.4 272.4h4.1v270h-4.1z" fill="#B4D330" opacity=".64" p-id="18018"></path><path d="M231.2 272.4h4.1v270h-4.1z" fill="#B5D42F" opacity=".64" p-id="18019"></path><path d="M235.3 272.4h4.1v270h-4.1z" fill="#B6D42F" opacity=".64" p-id="18020"></path><path d="M239.4 272.4h4.1v270h-4.1z" fill="#B7D42E" opacity=".64" p-id="18021"></path><path d="M243.2 272.4h4.1v270h-4.1z" fill="#B8D52E" opacity=".64" p-id="18022"></path><path d="M247.4 272.4h4.1v270h-4.1z" fill="#B9D52E" opacity=".64" p-id="18023"></path><path d="M251.5 272.4h4.1v270h-4.1z" fill="#BAD52D" opacity=".64" p-id="18024"></path><path d="M255.3 272.4h4.1v270h-4.1z" fill="#BBD62D" opacity=".64" p-id="18025"></path><path d="M259.4 272.4h4.1v270h-4.1z" fill="#BCD62C" opacity=".64" p-id="18026"></path><path d="M263.2 272.4h4.1v270h-4.1z" fill="#BDD62C" opacity=".64" p-id="18027"></path><path d="M267.4 272.4h4.1v270h-4.1z" fill="#BED72C" opacity=".64" p-id="18028"></path><path d="M271.5 272.4h4.1v270h-4.1z" fill="#BFD72B" opacity=".64" p-id="18029"></path><path d="M275.3 272.4h4.1v270h-4.1z" fill="#C0D72B" opacity=".64" p-id="18030"></path><path d="M279.4 272.4h4.1v270h-4.1z" fill="#C1D82A" opacity=".64" p-id="18031"></path><path d="M283.5 272.4h4.1v270h-4.1z" fill="#C2D82A" opacity=".64" p-id="18032"></path><path d="M287.4 272.4h4.1v270h-4.1z" fill="#C3D82A" opacity=".64" p-id="18033"></path><path d="M291.5 272.4h4.1v270h-4.1z" fill="#C4D929" opacity=".64" p-id="18034"></path><path d="M295.6 272.4h4.1v270h-4.1z" fill="#C5D929" opacity=".64" p-id="18035"></path><path d="M299.4 272.4h4.1v270h-4.1z" fill="#C6DA29" opacity=".64" p-id="18036"></path><path d="M303.5 272.4h4.1v270h-4.1z" fill="#C7DA28" opacity=".64" p-id="18037"></path><path d="M307.4 272.4h4.1v270h-4.1z" fill="#C8DA28" opacity=".64" p-id="18038"></path><path d="M311.5 272.4h4.1v270h-4.1z" fill="#C9DB27" opacity=".64" p-id="18039"></path><path d="M315.6 272.4h4.1v270h-4.1z" fill="#CADB27" opacity=".64" p-id="18040"></path><path d="M319.4 272.4h4.1v270h-4.1z" fill="#CBDB27" opacity=".64" p-id="18041"></path><path d="M323.5 272.4h4.1v270h-4.1z" fill="#CCDC26" opacity=".64" p-id="18042"></path><path d="M327.6 272.4h4.1v270h-4.1z" fill="#CDDC26" opacity=".64" p-id="18043"></path><path d="M331.5 272.4h4.1v270h-4.1z" fill="#CEDC25" opacity=".64" p-id="18044"></path><path d="M335.6 272.4h4.1v270h-4.1z" fill="#CFDD25" opacity=".64" p-id="18045"></path><path d="M339.7 272.4h4.1v270h-4.1z" fill="#D0DD25" opacity=".64" p-id="18046"></path><path d="M343.5 272.4h4.1v270h-4.1z" fill="#D1DD24" opacity=".64" p-id="18047"></path><path d="M347.6 272.4h4.1v270h-4.1z" fill="#D2DE24" opacity=".64" p-id="18048"></path><path d="M351.5 272.4h4.1v270h-4.1z" fill="#D3DE23" opacity=".64" p-id="18049"></path><path d="M355.6 272.4h4.1v270h-4.1z" fill="#D4DE23" opacity=".64" p-id="18050"></path><path d="M359.7 272.4h4.1v270h-4.1z" fill="#D5DF23" opacity=".64" p-id="18051"></path><path d="M363.5 272.4h4.1v270h-4.1z" fill="#D6DF22" opacity=".64" p-id="18052"></path><path d="M367.6 272.4h4.1v270h-4.1z" fill="#D7DF22" opacity=".64" p-id="18053"></path><path d="M371.7 272.4h4.1v270h-4.1z" fill="#D8E021" opacity=".64" p-id="18054"></path><path d="M375.6 272.4h4.1v270h-4.1z" fill="#D9E021" opacity=".64" p-id="18055"></path><path d="M379.7 272.4h90v270h-90z" fill="#D9E021" opacity=".64" p-id="18056"></path><path d="M587.6 760.6c-110.5 0-212.1-40-278-73.8-84.9-43.3-141.5-91.5-160-120.3-77.2-119-92.8-160.8-80-212.8 7.7-30.8 25.9-28.2 53.3-24.4 25.1 3.6 59.5 8.5 108.5-4.6 100.8-27.2 301-64.4 373.1-59 18.7 1.3 116.7 10.8 205.4 57.4 45.6 24.1 81.5 54.4 106.9 89.7 30.5 42.8 45.9 93.8 45.1 151.5h-3.8 3.8c-0.5 54.4-45.1 105.1-125.6 142.8-70.8 33.3-163.3 53.1-247.4 53.3-0.5 0.2-1 0.2-1.3 0.2zM99.9 335c-12.3 0-19 4.6-22.8 20.8-12.3 49.5 3.3 90 79 206.7C192 617.9 387.6 753 587.6 753h1c83.1-0.3 174.4-20 244.1-52.6C910.4 664 953.5 615.8 954 564.5c2.6-257.4-314.1-288.2-350.3-291-71.3-5.4-270.3 32.1-370.5 59-50.5 13.6-87.2 8.5-111.5 4.9-8.7-1.4-15.9-2.4-21.8-2.4z" fill="#42210B" p-id="18057"></path></svg>