<?xml version="1.0" standalone="no"?><!DOCTYPE svg PUBLIC "-//W3C//DTD SVG 1.1//EN" "http://www.w3.org/Graphics/SVG/1.1/DTD/svg11.dtd"><svg t="1721615877066" class="icon" viewBox="0 0 1024 1024" version="1.1" xmlns="http://www.w3.org/2000/svg" p-id="7316" xmlns:xlink="http://www.w3.org/1999/xlink" width="200" height="200"><path d="M0 0h1024v1024H0z" fill="#FFFFFF" p-id="7317"></path><path d="M853.333333 585.142857c0 188.513524-152.81981 341.333333-341.333333 341.333333S170.666667 773.656381 170.666667 585.142857s152.81981-341.333333 341.333333-341.333333 341.333333 152.81981 341.333333 341.333333z" fill="#FEB323" p-id="7318"></path><path d="M512 256c-181.784381 0-329.142857 147.358476-329.142857 329.142857S330.215619 914.285714 512 914.285714 841.142857 766.927238 841.142857 585.142857 693.784381 256 512 256zM158.47619 585.142857c0-195.242667 158.281143-353.52381 353.52381-353.523809S865.52381 389.90019 865.52381 585.142857 707.242667 938.666667 512 938.666667 158.47619 780.385524 158.47619 585.142857z" fill="#583D09" p-id="7319"></path><path d="M467.748571 205.385143c35.279238 32.646095 32.572952 92.891429 32.572953 92.891428s-59.879619 7.338667-95.134476-25.283047c-35.279238-32.670476-32.572952-92.891429-32.572953-92.891429s59.879619-7.363048 95.134476 25.283048z" fill="#30BE57" p-id="7320"></path><path d="M371.126857 167.984762l1.487238 12.092952-12.190476-0.536381a12.190476 12.190476 0 0 1 10.727619-11.556571z m129.194667 130.31619l1.462857 12.092953h-0.073143l-0.195048 0.024381-0.633904 0.073143a155.501714 155.501714 0 0 1-10.118096 0.609523c-6.582857 0.195048-15.798857 0.097524-26.185142-1.121523-20.48-2.364952-47.299048-9.191619-67.681524-28.038096-20.382476-18.870857-29.257143-45.104762-33.182476-65.316571a183.905524 183.905524 0 0 1-3.31581-36.156952l0.024381-0.633905v-0.292572l12.190476 0.536381-1.462857-12.092952h0.073143l0.195048-0.024381 0.633904-0.073143 2.218667-0.195048a184.003048 184.003048 0 0 1 34.084571 0.707048c20.48 2.364952 47.299048 9.167238 67.681524 28.038095 20.382476 18.870857 29.257143 45.080381 33.182476 65.316572a183.905524 183.905524 0 0 1 3.31581 36.156952l-0.024381 0.633905v0.292571l-12.190476-0.536381z m0 0l1.462857 12.092953a12.190476 12.190476 0 0 0 10.727619-11.556572l-12.190476-0.536381z m-12.434286-11.507809a159.890286 159.890286 0 0 0-2.584381-20.382476c-3.535238-18.041905-10.971429-38.302476-25.843809-52.077715-14.872381-13.775238-35.620571-19.602286-53.881905-21.723428a159.50019 159.50019 0 0 0-20.528762-1.024c0.341333 5.485714 1.072762 12.580571 2.584381 20.382476 3.535238 18.041905 10.971429 38.278095 25.843809 52.077714 14.872381 13.775238 35.620571 19.602286 53.881905 21.699048 7.92381 0.926476 15.043048 1.121524 20.528762 1.048381z m-103.082667-106.179048z m-10.727619 11.580953z" fill="#0E5C24" p-id="7321"></path><path d="M566.442667 231.911619c-43.544381 20.358095-59.318857 78.57981-59.318857 78.57981s54.808381 25.209905 98.32838 4.851809c43.52-20.358095 59.294476-78.57981 59.294477-78.579809s-54.784-25.209905-98.304-4.85181z" fill="#30BE57" p-id="7322"></path><path d="M669.842286 225.694476l-5.095619 11.068953 11.776 3.169523a12.190476 12.190476 0 0 0-6.680381-14.238476zM507.12381 310.491429l-5.071239 11.068952 0.073143 0.048762 0.170667 0.073143 0.585143 0.243809a154.697143 154.697143 0 0 0 9.435428 3.657143c6.241524 2.218667 15.043048 4.924952 25.307429 6.924191 20.23619 3.974095 47.835429 5.656381 72.996571-6.119619 25.161143-11.776 41.569524-34.03581 51.492572-52.102096a183.856762 183.856762 0 0 0 14.140952-33.450666l0.195048-0.609524 0.048762-0.170667v-0.097524l-11.751619-3.193904 5.12-11.068953h-0.048762l-0.073143-0.048762-0.170667-0.073143-0.585143-0.243809a155.355429 155.355429 0 0 0-9.435428-3.657143 183.832381 183.832381 0 0 0-25.283048-6.92419c-20.23619-3.974095-47.835429-5.656381-72.996571 6.119619-25.185524 11.776-41.593905 34.03581-51.492572 52.102095a183.612952 183.612952 0 0 0-14.140952 33.450667l-0.195048 0.609523-0.048762 0.170667v0.073143l-0.024381 0.024381 11.75162 3.193905z m0 0l-5.071239 11.068952a12.190476 12.190476 0 0 1-6.680381-14.262857l11.75162 3.193905z m15.36-7.168c1.974857-5.12 4.827429-11.654095 8.655238-18.627048 8.850286-16.11581 22.089143-33.158095 40.472381-41.740191 18.358857-8.582095 39.887238-7.826286 57.953523-4.291047 7.801905 1.536 14.628571 3.510857 19.846096 5.266286-1.999238 5.12-4.85181 11.654095-8.679619 18.627047-8.850286 16.11581-22.089143 33.158095-40.448 41.740191-18.358857 8.582095-39.911619 7.826286-57.953524 4.291047-7.801905-1.536-14.628571-3.535238-19.870476-5.266285z m130.511238-69.753905z m6.680381 14.287238z" fill="#0E5C24" p-id="7323"></path><path d="M577.901714 139.337143a12.190476 12.190476 0 0 1-3.072 16.969143c-1.462857 0.999619-3.876571 3.510857-6.972952 8.387047-2.974476 4.681143-6.095238 10.752-9.240381 17.92a409.307429 409.307429 0 0 0-17.310476 49.761524 547.376762 547.376762 0 0 0-11.580953 48.347429c-1.243429 6.704762-2.048 12.190476-2.438095 16.14019-0.146286 1.926095-0.195048 3.242667-0.195047 4.047238a12.190476 12.190476 0 0 1-22.479239 9.142857 19.382857 19.382857 0 0 1-1.877333-8.411428 61.635048 61.635048 0 0 1 0.292572-6.997333c0.463238-4.998095 1.414095-11.312762 2.730666-18.358858 2.633143-14.189714 6.875429-32.280381 12.117334-50.590476 5.217524-18.285714 11.556571-37.180952 18.432-52.857905 3.413333-7.850667 7.094857-15.11619 10.971428-21.211428 3.754667-5.90019 8.265143-11.605333 13.653333-15.36a12.190476 12.190476 0 0 1 16.944762 3.072zM527.11619 301.592381l-0.02438-0.268191 0.02438 0.24381z" fill="#583D09" p-id="7324"></path><path d="M349.96419 405.845333a12.190476 12.190476 0 0 1 0 17.261715c-11.385905 11.361524-28.964571 32.987429-43.641904 59.977142-14.677333 27.038476-25.941333 58.514286-25.941334 89.868191a12.190476 12.190476 0 0 1-24.380952 0c0-36.912762 13.116952-72.484571 28.91581-101.522286 15.798857-29.086476 34.791619-52.565333 47.786666-65.584762a12.190476 12.190476 0 0 1 17.261714 0z" fill="#FCE7BF" p-id="7325"></path><path d="M555.300571 338.627048c-34.377143-17.188571-72.362667-7.119238-86.601142 0a12.190476 12.190476 0 1 1-10.922667-21.796572c18.285714-9.142857 64.78019-21.845333 108.446476 0a12.190476 12.190476 0 0 1-10.922667 21.796572z" fill="#583D09" p-id="7326"></path></svg>