<?xml version="1.0" standalone="no"?><!DOCTYPE svg PUBLIC "-//W3C//DTD SVG 1.1//EN" "http://www.w3.org/Graphics/SVG/1.1/DTD/svg11.dtd"><svg t="1721615971236" class="icon" viewBox="0 0 1024 1024" version="1.1" xmlns="http://www.w3.org/2000/svg" p-id="13415" xmlns:xlink="http://www.w3.org/1999/xlink" width="200" height="200"><path d="M659.879377 209.426764s58.160138-123.734523 94.660167-131.14877c0 0-160.234551-14.257288-199.579183 77.546851l11.424109 67.288002z m-300.454063 3.998438S301.253751 89.690679 264.765148 82.276432c0 0 148.821866-15.399699 199.567758 77.546851l-11.424109 67.288002z m0 0" fill="#60B71C" p-id="13416"></path><path d="M572.062252 168.379941s13.103453 24.516138 11.961042 38.20222c0 0 25.658549-9.139287 38.841971-9.139287 0 0-28.560272 10.281698-44.48548 21.705807 0.571205 0-3.987014-30.228192-6.271836-50.745892z m0 0" fill="#43CE38" p-id="13417"></path><path d="M348.138294 220.062609l-0.662598-1.690768C333.903855 183.608278 292.445763 92.11259 263.896915 86.400536l0.297027-8.293904a213.128175 213.128175 0 0 1 24.470441-1.14241c52.619446 0 146.85692 11.424109 186.772757 87.794276l0.342723 0.651175 15.331154 112.847347z m109.260178 14.108775l-8.556658-60.376416c-27.74916-48.255436-87.394433-62.832599-125.905104-67.059519 15.251185 22.848218 31.210665 54.470151 46.507547 92.078318z m93.266425-78.997713l0.422692-0.993897c31.02788-72.805846 136.266771-80.665633 180.066804-80.665633 14.223016 0 23.259486 0.548357 23.636481 0.571205l0.594054 8.316751c-28.228973 5.712054-75.753266 94.934345-91.689898 128.818252l-0.662598 1.393741-101.98302 46.404731z m33.00425 64.511943l59.405366-27.132259c8.693747-18.187181 29.222871-58.857009 53.202075-90.970179-44.851051 4.683885-98.087399 18.872628-118.205254 58.502862z" fill="#167203" p-id="13418"></path><path d="M436.355263 333.172712s-132.862386-80.402878-250.896279-82.116495c0 0 130.017783-97.504769 256.025704-33.072795 0 0-5.712054-50.745892 70.144028-208.695621 0 0 63.860769 119.176304 66.705372 208.695621 0 0 115.760495-84.389892 262.868746 14.257288 0 0-206.982005 51.888303-253.169677 100.932002z m0 0" fill="#60B71C" p-id="13419"></path><path d="M435.17858 337.376784l-1.016746-0.616902c-1.313773-0.799688-132.702449-79.831673-248.759971-81.499593L173.178067 255.088927l9.744764-7.379974c3.015965-2.284822 75.147788-56.172343 165.649579-56.172343 31.930384 0 61.747309 6.603135 88.742478 19.615195 0.936777-19.078262 9.6191-77.421186 70.521024-203.691862L511.434507 0l3.895621 7.31143c2.536152 4.741005 60.547777 114.332482 66.819613 203.177776 15.045551-9.139287 55.978134-30.353857 113.098678-30.353857 50.163262 0 99.86956 16.359324 147.748 48.609583l7.825514 5.277939-9.139287 2.284821c-2.05634 0.514085-206.319406 52.151057-251.124761 99.732471l-1.256652 1.325197z m143.315446-28.377487c40.944006-34.272327 138.151749-66.488314 199.716271-84.447013-27.315044-11.424109-55.178446-17.136163-82.973303-17.136163-62.718358 0-102.439984 28.948692-102.816979 29.245719l-36.294394 26.526781-1.393742-44.462632c-1.553679-39.218966-16.496413-92.352496-43.126011-153.962716C465.075473 170.927517 464.492843 212.488425 464.504267 214.92176l4.855247 43.674369-38.97906-20.940392a178.318916 178.318916 0 0 0-81.842316-19.420985c-33.484063 0-64.477671 8.807988-87.462978 17.844458 86.183477 19.592347 163.855994 62.718358 181.540515 72.954359z" fill="#167203" p-id="13420"></path><path d="M736.283818 386.77463c-53.030713-101.503207-229.79595-96.944988-229.795951-96.944988s-176.194031-4.569644-229.79595 96.944988c-51.317097 98.635756-125.436716 521.739053 37.071234 599.85711 69.561399 33.129916 192.153511 29.702683 192.153511 29.702683s123.163318 3.987014 192.164936-29.702683c163.65036-78.118057 89.530741-501.221353 38.20222-599.85711z m0 0" fill="#FCD741" p-id="13421"></path><path d="M402.825503 1007.45789c-8.933653-1.348045-18.095788-2.741786-27.177955-4.42113l120.752831-120.752831-134.747364-134.73594-126.807609 126.807609c-2.444759-8.636626-4.569644-16.953378-6.214715-24.813165l117.771139-117.782562L224.472316 609.224879c1.142411-9.276376 2.284822-18.381391 3.610018-27.417862l134.141886 134.153311 134.804485-134.804485-134.804485-134.690244L228.287968 580.401852c1.827857-12.646489 3.849925-25.13304 6.08905-37.699559l112.630289-112.036236-57.920232-57.931656a124.705573 124.705573 0 0 1 14.360105-16.679199l59.405366 58.799888 120.958465-120.981313c14.04023-0.525509 22.654008-0.536933 22.676856-0.536933s1.805009-0.057121 4.820974-0.057121c5.64351 0 17.227556 0.217058 32.05605 1.656496l119.953143 119.953143 51.762638-51.785485a133.822011 133.822011 0 0 1 13.503296 18.084364l-49.477815 49.48924 95.551246 95.539823c2.798907 13.160573 5.129425 25.887031 7.0601 38.659184L663.30661 446.465599l-134.747364 134.804485 134.747364 134.804485 122.237965-122.237965c1.325197 9.139287 2.616121 18.644146 3.541474 28.034763l-109.979896 110.002745 105.296011 106.449846c-1.702192 8.465265-3.541474 17.284677-5.712054 25.864183l-116.525911-116.525911L527.416835 882.283929l118.547978 118.547978c-8.625202 1.805009-17.261829 3.541474-26.115513 4.900943l-107.660802-107.649378z m-24.80174-275.709444l134.73594 134.804485 134.804485-134.804485-134.804485-134.747364z m0-301.070965l134.73594 134.73594 134.804485-134.73594-134.804485-134.747364z m379.828772 491.796463c-15.913784 29.645563-35.803157 49.843387-60.456384 61.495978-0.731143 0.411268-1.462286 0.788264-2.193429 1.142411z" fill="#FBAC1D" p-id="13422"></path><path d="M495.657812 1024c-28.126156 0-124.522787-2.182005-183.825336-30.331009-36.808479-17.695945-64.249188-53.053562-81.579561-105.101802-52.836504-158.658024 3.370112-431.717075 41.241033-504.522921 50.026173-95.962515 202.206727-100.794913 232.149316-100.794912h6.854466c29.988286 0 182.11172 4.855246 232.137892 100.794912 37.996586 72.246065 94.580197 344.425459 41.835087 503.666113-17.398918 52.550901-45.033837 88.159848-82.150767 105.935762-56.492218 27.417861-147.371005 30.353857-183.83676 30.353857z m7.414247-707.060947c-16.302203 0-160.50873 2.284822-202.949294 82.859062-36.100184 68.259051-89.736375 325.964099-39.447448 477.390662 14.965583 43.800033 36.739934 72.691605 64.694728 85.875026 51.682669 25.292977 142.972723 27.257924 169.716562 27.257924h22.848218c18.826931 0 115.509165-1.313773 169.682289-27.2465 28.228973-13.309087 50.608802-43.000346 64.729001-85.875026 50.151838-150.489786-3.427233-408.697495-39.458872-477.413511-41.92648-80.517119-186.098734-82.847638-202.400937-82.847637z" fill="#FBAC1D" p-id="13423"></path><path d="M470.570469 461.465454a15.399699 15.399699 0 1 0 15.388275-15.399698 15.376851 15.376851 0 0 0-15.388275 15.399698z m0 0M625.664171 853.769353a7.996876 7.996876 0 1 0 7.996877-7.996876 7.996876 7.996876 0 0 0-7.996877 7.996876z m0 0M528.730607 691.307101a15.399699 15.399699 0 1 0 15.388275-15.388275 15.399699 15.399699 0 0 0-15.388275 15.388275z m0 0M520.17395 487.695208a7.996876 7.996876 0 1 0 7.996876-7.996876 7.996876 7.996876 0 0 0-7.996876 7.996876z m0 0M379.897317 521.910414a3.998438 3.998438 0 1 0 3.998438-3.998438 3.998438 3.998438 0 0 0-3.998438 3.998438z m0 0M591.460389 562.968662a13.114877 13.114877 0 1 0 13.126301-13.114877 13.092029 13.092029 0 0 0-13.103452 13.114877z m0 0M699.224008 562.968662a19.957918 19.957918 0 1 0 19.957919-19.957918 19.957918 19.957918 0 0 0-19.957919 19.957918z m0 0M453.457154 759.120611a21.111753 21.111753 0 1 0 10.555877-18.278574 21.077481 21.077481 0 0 0-10.555877 18.278574z m0 0M491.099593 657.034774a6.271836 6.271836 0 1 0 6.271836-6.271835 6.271836 6.271836 0 0 0-6.271836 6.271835z m0 0M434.641647 563.539867a7.996876 7.996876 0 1 0 7.996876-7.996876 7.996876 7.996876 0 0 0-7.996876 7.996876z m0 0M367.365069 627.971841a7.996876 7.996876 0 1 0 7.996877-7.996876 7.996876 7.996876 0 0 0-7.996877 7.996876z m0 0" fill="#FFFFFF" p-id="13424"></path></svg>