<?xml version="1.0" standalone="no"?><!DOCTYPE svg PUBLIC "-//W3C//DTD SVG 1.1//EN" "http://www.w3.org/Graphics/SVG/1.1/DTD/svg11.dtd"><svg t="1721615918019" class="icon" viewBox="0 0 1024 1024" version="1.1" xmlns="http://www.w3.org/2000/svg" p-id="9964" xmlns:xlink="http://www.w3.org/1999/xlink" width="200" height="200"><path d="M725 391.6c0.7-8 0.8-16.2 0.2-24.5-6-93.9-93.5-170.6-202.2-177.1-127.3-7.6-233.3 79.4-233.3 187.7 0 3.2 0.1 6.3 0.3 9.5 3.8 66.3-13.7 132.8-56.5 188C204 613.3 187 658 187 705.7c0 139.6 144.9 252.7 323.7 252.7s323.7-113.1 323.7-252.7c0-48.9-17.8-94.6-48.7-133.3-42.3-53.2-66.1-116.5-60.7-180.8z" fill="#FFD401" p-id="9965"></path><path d="M536 211.3c-3.8-28 2-46.2 15.9-70.4 21.2-37.1-36.1-70.6-57.2-33.5-10 17.5-20.1 36-23.9 56.1-4.3 22.1-1.6 43.4 1.4 65.5 2.4 17.8 25.2 27.4 40.8 23.2 19-5.4 25.5-23.1 23-40.9z" fill="#22802A" p-id="9966"></path><path d="M512.9 252.1c19.1-5.3 25.6-23 23.2-40.8-1-7.4-1.3-14-1-20.3-3.9-0.4-7.9-0.8-11.9-1-18.7-1.1-37-0.1-54.5 2.6 0.3 12.1 1.8 24.1 3.5 36.3 2.3 17.8 25 27.5 40.7 23.2z" fill="#226A00" p-id="9967"></path><path d="M606.5 279.9c-25.3 4.3-49.3-12.7-53.6-38.1-13.8-81.6 41.1-159 122.7-172.9 25.3-4.3 49.3 12.7 53.6 38.1 13.8 81.6-41.1 159-122.7 172.9z" fill="#8BC03C" p-id="9968"></path><path d="M552.9 241.8c4.3 25.3 28.3 42.4 53.6 38.1 23.9-4.1 45.5-13.6 63.8-27.1-30.5-29.5-71.5-50.8-117.7-59.3-2.5 15.6-2.5 31.9 0.3 48.3z" fill="#8BA000" p-id="9969"></path><path d="M365.5 336.1c-15.6 19.7-25.5 43.4-22.3 69 2 16.1 12.9 31.9 31.1 31.1 15.2-0.7 33.3-13.8 31.1-31.1-0.5-4-0.6-7.8-0.5-11.8 0-6.2-1.5 3 0.7-3.4 0.1-0.4 3.3-9 0.9-3.7 0.5-1.1 6.5-10.4 3.1-6.1 10.1-12.7 13.4-31.8 0-44-11.3-10.3-33.3-13.6-44.1 0z" fill="#FFFFFF" p-id="9970"></path></svg>