<?xml version="1.0" standalone="no"?><!DOCTYPE svg PUBLIC "-//W3C//DTD SVG 1.1//EN" "http://www.w3.org/Graphics/SVG/1.1/DTD/svg11.dtd"><svg t="1721615898492" class="icon" viewBox="0 0 1024 1024" version="1.1" xmlns="http://www.w3.org/2000/svg" p-id="8699" xmlns:xlink="http://www.w3.org/1999/xlink" width="200" height="200"><path d="M456.267093 166.6048c-179.43552 0-369.780053 119.58272-369.780053 311.36768s190.344533 311.364267 369.780053 311.364267c179.432107 0 369.780053-116.196693 369.780054-311.364267S635.6992 166.6048 456.267093 166.6048z" fill="#00B12C" p-id="8700"></path><path d="M456.267093 809.816747c-187.685547 0-390.260053-126.8736-390.260053-331.844267 0-204.97408 202.574507-331.84768 390.260053-331.84768 95.97952 0 192.426667 31.60064 264.605014 86.695253 81.02912 61.853013 125.65504 148.913493 125.65504 245.149014s-44.62592 183.299413-125.65504 245.149013c-72.178347 55.098027-168.625493 86.698667-264.605014 86.698667z m0-622.731947c-167.9872 0-349.300053 111.213227-349.300053 290.88768 0 179.67104 181.312853 290.884267 349.300053 290.884267 171.700907 0 349.300053-108.803413 349.300054-290.884267S627.968 187.0848 456.267093 187.0848z" fill="#158402" p-id="8701"></path><path d="M460.468907 674.986667c136.41728 0 258.01728-16.380587 336.981333-41.905494-10.714453 58.30656-159.443627 104.523093-341.425493 104.523094-185.197227 0-335.926613-47.865173-341.82144-107.629227 78.533973 27.29984 204.386987 45.011627 346.2656 45.011627zM460.468907 311.456427c136.41728 0 258.01728 16.370347 336.981333 41.905493-10.714453-58.309973-159.443627-104.523093-341.425493-104.523093-185.197227 0-335.926613 47.865173-341.82144 107.629226 78.533973-27.306667 204.386987-45.011627 346.2656-45.011626zM454.198613 426.666667c152.04352 0 287.573333 9.127253 375.58272 23.35744-11.93984-32.50176-177.708373-58.258773-380.532053-58.258774-206.414507 0-374.40512 26.678613-380.9792 59.989334 87.52128-15.220053 227.792213-25.088 385.928533-25.088zM464.407893 552.97024c152.04352 0 287.56992-9.127253 375.579307-23.35744-11.93984 32.498347-177.70496 58.25536-380.52864 58.25536-206.414507 0-374.408533-26.6752-380.9792-59.989333 87.517867 15.223467 227.792213 25.091413 385.928533 25.091413z" fill="#158402" p-id="8702"></path><path d="M328.372907 571.252053c7.365973 187.808427 168.874667 286.139733 306.251093 286.139734 137.485653 0 299.15136-91.521707 306.274987-286.139734" fill="#FFFFFF" p-id="8703"></path><path d="M634.624 877.871787c-76.793173 0-155.11552-28.173653-214.882987-77.298347-48.493227-39.857493-107.257173-111.858347-111.834453-228.51584l40.92928-1.60768c6.54336 166.792533 150.442667 266.461867 285.784747 266.461867 137.181867 0 279.405227-91.511467 285.805226-266.410667l40.932694 1.498453c-4.39296 120.05376-63.25248 192.013653-111.854934 231.236267-58.760533 47.435093-137.08288 74.635947-214.879573 74.635947z" fill="#6FD109" p-id="8704"></path><path d="M367.40096 571.293013c6.434133 157.60384 147.3024 245.746347 267.22304 245.746347 120.026453 0 261.2736-82.459307 267.485867-245.78048" fill="#F93D3D" p-id="8705"></path><path d="M419.519147 600.00256l-6.075734 13.677227s0.160427 6.345387 6.055254 6.345386c4.686507 0 5.812907-3.80928 6.099626-6.345386l-6.079146-13.677227zM527.07328 600.00256l-6.07232 13.677227s0.167253 6.345387 6.05184 6.345386c4.693333 0 5.81632-3.80928 6.10304-6.345386l-6.08256-13.677227zM634.630827 600.00256l-6.07232 13.677227s0.16384 6.345387 6.05184 6.345386c4.693333 0 5.819733-3.80928 6.10304-6.345386l-6.08256-13.677227zM742.191787 600.00256l-6.079147 13.677227s0.16384 6.345387 6.05184 6.345386c4.693333 0 5.81632-3.80928 6.10304-6.345386l-6.075733-13.677227zM849.742507 600.00256l-6.075734 13.677227s0.16384 6.345387 6.055254 6.345386c4.686507 0 5.81632-3.80928 6.099626-6.345386l-6.079146-13.677227zM477.12256 653.554347l-6.07232 13.6704s0.160427 6.345387 6.055253 6.345386c4.68992 0 5.81632-3.805867 6.099627-6.345386l-6.08256-13.6704zM584.389973 653.554347l-6.065493 13.6704s0.160427 6.345387 6.05184 6.345386c4.693333 0 5.809493-3.805867 6.10304-6.345386l-6.089387-13.6704zM684.864853 653.554347l-6.07232 13.6704s0.16384 6.345387 6.05184 6.345386c4.686507 0 5.812907-3.805867 6.096214-6.345386l-6.075734-13.6704zM595.735893 760.743253l-6.068906 13.673814s0.157013 6.345387 6.048426 6.345386c4.693333 0 5.81632-3.80928 6.099627-6.345386l-6.079147-13.673814zM673.518933 760.743253l-6.068906 13.673814s0.160427 6.345387 6.048426 6.345386c4.686507 0 5.812907-3.80928 6.099627-6.345386l-6.079147-13.673814zM531.326293 708.765013l-6.07232 13.673814s0.167253 6.3488 6.055254 6.3488c4.686507 0 5.812907-3.812693 6.099626-6.3488l-6.08256-13.673814zM634.630827 708.765013l-6.07232 13.673814s0.160427 6.3488 6.05184 6.3488c4.68992 0 5.819733-3.812693 6.099626-6.3488l-6.079146-13.673814zM737.938773 708.765013l-6.079146 13.673814s0.16384 6.3488 6.05184 6.3488c4.693333 0 5.81632-3.812693 6.10304-6.3488l-6.075734-13.673814zM785.329493 653.554347l-6.075733 13.6704s0.16384 6.345387 6.055253 6.345386c4.68992 0 5.812907-3.805867 6.099627-6.345386l-6.079147-13.6704z" fill="#141111" p-id="8706"></path><path d="M910.708053 552.082773c-0.682667 0-1.365333-0.01024-2.05824-0.034133a49.380693 49.380693 0 0 1-34.604373-15.7696 49.329493 49.329493 0 0 1-13.305173-35.618133c0.815787-23.3984 20.503893-41.80992 43.91936-40.963414 20.241067 0.7168 36.11648 17.752747 35.406506 37.973334-0.262827 7.53664-6.669653 13.33248-14.124373 13.165226a13.64992 13.64992 0 0 1-13.161813-14.124373 9.4208 9.4208 0 0 0-9.076054-9.728c-8.26368-0.331093-15.383893 6.273707-15.674026 14.629547a22.203733 22.203733 0 0 0 5.9904 16.039253 22.2208 22.2208 0 0 0 15.578453 7.103147c0.36864 0.01024 0.73728 0.017067 1.099093 0.017066 16.800427 0 30.76096-13.366613 31.358294-30.286506 0.815787-23.487147-17.626453-43.267413-41.120427-44.090027a56.333653 56.333653 0 0 0-40.645973 15.19616 56.30976 56.30976 0 0 0-17.995094 39.48544c-0.26624 7.53664-6.673067 13.32224-14.124373 13.16864a13.64992 13.64992 0 0 1-13.165227-14.124373c0.781653-22.422187 10.253653-43.20256 26.66496-58.504534a83.479893 83.479893 0 0 1 60.224854-22.514346c38.539947 1.344853 68.799147 33.795413 67.457706 72.33536-1.119573 31.65184-27.224747 56.644267-58.64448 56.644266z" fill="#158402" p-id="8707"></path><path d="M147.674453 497.332907A20.45952 20.45952 0 0 1 127.317333 474.453333c0.843093-7.079253 22.623573-174.124373 194.061654-242.117973a20.48 20.48 0 1 1 15.100586 38.07232c-148.247893 58.79808-167.738027 202.837333-168.492373 208.940373a20.517547 20.517547 0 0 1-20.312747 17.984854z" fill="#FFFFFF" p-id="8708"></path><path d="M397.165227 229.761707m-24.685227 0a24.685227 24.685227 0 1 0 49.370453 0 24.685227 24.685227 0 1 0-49.370453 0Z" fill="#FFFFFF" p-id="8709"></path></svg>